<svg width="25" height="24" viewBox="0 0 25 24" fill="none" xmlns="http://www.w3.org/2000/svg">
<path d="M8.23904 19.3248C8.23904 19.424 8.1249 19.5034 7.98098 19.5034C7.81721 19.5183 7.70307 19.4389 7.70307 19.3248C7.70307 19.2255 7.81721 19.1461 7.96113 19.1461C8.11001 19.1312 8.23904 19.2106 8.23904 19.3248ZM6.69564 19.1014C6.6609 19.2007 6.76016 19.3148 6.90904 19.3446C7.03807 19.3942 7.18695 19.3446 7.21673 19.2454C7.2465 19.1461 7.15221 19.032 7.00333 18.9873C6.8743 18.9526 6.73038 19.0022 6.69564 19.1014ZM8.88916 19.0171C8.74524 19.0518 8.64599 19.1461 8.66087 19.2603C8.67576 19.3595 8.80479 19.424 8.95367 19.3893C9.09759 19.3545 9.19685 19.2603 9.18196 19.161C9.16707 19.0667 9.03308 19.0022 8.88916 19.0171ZM12.1546 0C5.27135 0 0.00592041 5.22573 0.00592041 12.109C0.00592041 17.6126 3.46989 22.3222 8.4177 23.9798C9.05293 24.0939 9.27625 23.7019 9.27625 23.3793C9.27625 23.0716 9.26136 21.3744 9.26136 20.3322C9.26136 20.3322 5.78747 21.0766 5.05795 18.8533C5.05795 18.8533 4.4922 17.4092 3.67832 17.037C3.67832 17.037 2.54186 16.2578 3.75772 16.2727C3.75772 16.2727 4.99344 16.372 5.67333 17.5531C6.76016 19.4687 8.58147 18.9178 9.29114 18.5903C9.40528 17.7963 9.72786 17.2454 10.0852 16.9179C7.31102 16.6102 4.51205 16.2082 4.51205 11.4341C4.51205 10.0693 4.88922 9.38447 5.68325 8.51103C5.55422 8.18846 5.13239 6.85846 5.81228 5.14136C6.84949 4.81878 9.23655 6.48129 9.23655 6.48129C10.2291 6.20338 11.2961 6.05946 12.3531 6.05946C13.4102 6.05946 14.4772 6.20338 15.4697 6.48129C15.4697 6.48129 17.8568 4.81382 18.894 5.14136C19.5739 6.86342 19.152 8.18846 19.023 8.51103C19.817 9.38943 20.3034 10.0743 20.3034 11.4341C20.3034 16.2231 17.3803 16.6052 14.6062 16.9179C15.0628 17.3099 15.4499 18.0543 15.4499 19.2205C15.4499 20.893 15.435 22.9624 15.435 23.3694C15.435 23.6919 15.6632 24.084 16.2935 23.9699C21.2562 22.3222 24.6209 17.6126 24.6209 12.109C24.6209 5.22573 19.0379 0 12.1546 0ZM4.82967 17.1164C4.76515 17.166 4.78004 17.2801 4.86441 17.3744C4.94381 17.4538 5.05795 17.4886 5.12247 17.424C5.18698 17.3744 5.17209 17.2603 5.08773 17.166C5.00833 17.0866 4.89418 17.0518 4.82967 17.1164ZM4.2937 16.7144C4.25896 16.7789 4.30858 16.8583 4.40784 16.9079C4.48724 16.9576 4.58649 16.9427 4.62123 16.8732C4.65597 16.8087 4.60635 16.7293 4.50709 16.6796C4.40784 16.6499 4.32843 16.6648 4.2937 16.7144ZM5.90161 18.4811C5.82221 18.5456 5.85198 18.6945 5.96613 18.7888C6.08027 18.9029 6.22419 18.9178 6.2887 18.8384C6.35322 18.7739 6.32344 18.625 6.22419 18.5307C6.11501 18.4166 5.96613 18.4017 5.90161 18.4811ZM5.33586 17.7516C5.25646 17.8012 5.25646 17.9302 5.33586 18.0444C5.41527 18.1585 5.54926 18.2082 5.61377 18.1585C5.69318 18.094 5.69318 17.965 5.61377 17.8508C5.5443 17.7367 5.41527 17.6871 5.33586 17.7516Z" fill="#777777"/>
</svg>
