<svg width="25" height="24" viewBox="0 0 25 24" fill="none" xmlns="http://www.w3.org/2000/svg">
<path d="M12.0059 5.8467C8.5999 5.8467 5.85261 8.594 5.85261 12C5.85261 15.406 8.5999 18.1533 12.0059 18.1533C15.4119 18.1533 18.1592 15.406 18.1592 12C18.1592 8.594 15.4119 5.8467 12.0059 5.8467ZM12.0059 16.0004C9.80486 16.0004 8.00546 14.2064 8.00546 12C8.00546 9.7936 9.7995 7.99955 12.0059 7.99955C14.2123 7.99955 16.0064 9.7936 16.0064 12C16.0064 14.2064 14.207 16.0004 12.0059 16.0004ZM19.8461 5.595C19.8461 6.39295 19.2035 7.03024 18.4109 7.03024C17.613 7.03024 16.9757 6.38759 16.9757 5.595C16.9757 4.80241 17.6183 4.15977 18.4109 4.15977C19.2035 4.15977 19.8461 4.80241 19.8461 5.595ZM23.9216 7.05166C23.8305 5.12909 23.3914 3.42608 21.9829 2.02298C20.5798 0.619882 18.8768 0.180743 16.9542 0.0843468C14.9728 -0.0281156 9.03369 -0.0281156 7.05221 0.0843468C5.13499 0.175388 3.43199 0.614526 2.02353 2.01763C0.615076 3.42073 0.181292 5.12373 0.0848961 7.0463C-0.0275663 9.02778 -0.0275663 14.9669 0.0848961 16.9483C0.175937 18.8709 0.615076 20.5739 2.02353 21.977C3.43199 23.3801 5.12964 23.8193 7.05221 23.9157C9.03369 24.0281 14.9728 24.0281 16.9542 23.9157C18.8768 23.8246 20.5798 23.3855 21.9829 21.977C23.386 20.5739 23.8252 18.8709 23.9216 16.9483C24.034 14.9669 24.034 9.03314 23.9216 7.05166ZM21.3617 19.0744C20.944 20.1241 20.1353 20.9327 19.0803 21.3558C17.5005 21.9824 13.7517 21.8378 12.0059 21.8378C10.2601 21.8378 6.50596 21.977 4.93149 21.3558C3.88184 20.9381 3.07318 20.1294 2.65011 19.0744C2.02353 17.4946 2.16813 13.7458 2.16813 12C2.16813 10.2542 2.02889 6.50006 2.65011 4.92558C3.06783 3.87593 3.87648 3.06728 4.93149 2.6442C6.51132 2.01763 10.2601 2.16222 12.0059 2.16222C13.7517 2.16222 17.5058 2.02298 19.0803 2.6442C20.13 3.06192 20.9386 3.87058 21.3617 4.92558C21.9883 6.50541 21.8437 10.2542 21.8437 12C21.8437 13.7458 21.9883 17.4999 21.3617 19.0744Z" fill="#777777"/>
</svg>
