<svg width="24" height="24" viewBox="0 0 24 24" fill="none" xmlns="http://www.w3.org/2000/svg">
<path d="M11.0769 0V4.61538H12.9231V0H11.0769ZM4.15385 2.85577L2.85577 4.15385L6.11538 7.44231L7.44231 6.11538L4.15385 2.85577ZM19.8462 2.85577L16.5577 6.11538L17.8846 7.44231L21.1442 4.15385L19.8462 2.85577ZM12 5.53846C8.44111 5.53846 5.53846 8.44111 5.53846 12C5.53846 15.5589 8.44111 18.4615 12 18.4615C15.5589 18.4615 18.4615 15.5589 18.4615 12C18.4615 8.44111 15.5589 5.53846 12 5.53846ZM12 7.38462C14.5601 7.38462 16.6154 9.4399 16.6154 12C16.6154 14.5601 14.5601 16.6154 12 16.6154C9.4399 16.6154 7.38462 14.5601 7.38462 12C7.38462 9.4399 9.4399 7.38462 12 7.38462ZM0 11.0769V12.9231H4.61538V11.0769H0ZM19.3846 11.0769V12.9231H24V11.0769H19.3846ZM6.11538 16.5577L2.85577 19.8462L4.15385 21.1442L7.44231 17.8846L6.11538 16.5577ZM17.8846 16.5577L16.5577 17.8846L19.8462 21.1442L21.1442 19.8462L17.8846 16.5577ZM11.0769 19.3846V24H12.9231V19.3846H11.0769Z" fill="white"/>
</svg>
