<svg width="37" height="40" viewBox="0 0 37 40" fill="none" xmlns="http://www.w3.org/2000/svg">
<path d="M20.838 14.8963V19.5525C20.838 19.6667 20.838 19.7809 20.838 19.8951C20.8577 20.3002 21.0165 20.4466 21.4252 20.4644H21.6036C23.2884 20.4644 24.9713 20.4644 26.656 20.4644C26.9981 20.4621 27.3394 20.4329 27.6769 20.377C28.9261 20.1717 29.6632 19.4293 29.7381 18.1711C29.8051 17.0597 29.8051 15.9452 29.7381 14.8338C29.6578 13.4971 28.8458 12.7386 27.477 12.5941C27.1367 12.5584 26.7947 12.5405 26.4526 12.5405C25.1819 12.5405 23.9112 12.5405 22.6423 12.5405H22.0837L28.9118 0.70105L28.9957 0.740312C28.1212 2.84622 27.1932 4.93249 26.2795 7.11156H26.8773C27.9901 7.07295 29.1037 7.15553 30.1986 7.35785C33.4324 8.0146 35.5954 10.3365 36.0041 13.6149C36.1902 15.2039 36.2123 16.8078 36.0701 18.4013C35.9059 20.4234 34.8744 21.9029 33.0148 22.7666C32.7828 22.8755 32.5436 22.9683 32.242 23.095C32.3371 23.1383 32.4348 23.1752 32.5347 23.2057C33.3616 23.3778 34.1378 23.7381 34.803 24.2586C35.8453 25.0921 36.3575 26.2075 36.5127 27.5031C36.5701 27.9846 36.5963 28.4692 36.5913 28.9541C36.5913 30.2943 36.5716 31.6311 36.5199 32.9767C36.4787 33.82 36.2934 34.6499 35.972 35.4306C35.0404 37.7828 33.2718 39.1481 30.85 39.7245C30.0569 39.9105 29.2446 40.0027 28.43 39.9994H15.4965C15.3827 40.0018 15.2689 39.997 15.1557 39.9851C14.9608 39.9715 14.7765 39.8914 14.6335 39.7582C14.4906 39.625 14.3977 39.4468 14.3704 39.2534C14.345 39.0989 14.3349 38.9423 14.3401 38.7858C14.3401 34.6216 14.3401 30.4538 14.3401 26.2824C14.3388 26.0547 14.4005 25.8311 14.5185 25.6364C16.5411 22.1444 18.5638 18.6488 20.5864 15.1497C20.6417 15.0533 20.706 14.9712 20.7649 14.8695L20.838 14.8963ZM20.838 30.1694V33.7316C20.838 33.8458 20.838 33.96 20.838 34.0743C20.8337 34.1426 20.8438 34.2111 20.8677 34.2752C20.8916 34.3394 20.9288 34.3978 20.9768 34.4466C21.0248 34.4955 21.0825 34.5336 21.1462 34.5586C21.21 34.5837 21.2783 34.595 21.3467 34.5918C21.4323 34.5963 21.518 34.5963 21.6036 34.5918C23.4436 34.5918 25.2854 34.5918 27.1254 34.5918C27.4678 34.5901 27.8096 34.5632 28.148 34.5115C29.3616 34.333 30.0005 33.7191 30.22 32.5109C30.2657 32.2157 30.2866 31.9172 30.2825 31.6186C30.2825 30.6352 30.2825 29.6554 30.2825 28.665C30.2837 28.451 30.2742 28.2372 30.2539 28.0243C30.1343 26.7982 29.5097 26.0968 28.2908 25.8827C27.8417 25.8041 27.3867 25.7647 26.9309 25.7649C25.1605 25.7524 23.3919 25.7649 21.6215 25.7649C21.5222 25.7595 21.4227 25.7595 21.3235 25.7649C20.9826 25.8024 20.8541 25.9433 20.8309 26.3003C20.8309 26.4145 20.8309 26.5287 20.8309 26.6429L20.838 30.1694Z" fill="white"/>
<path d="M11.7612 27.8869C12.6535 25.8096 13.5458 23.7304 14.4525 21.6049C14.3311 21.5924 14.2544 21.5781 14.1794 21.5781H7.4994H7.24241C6.63919 21.5781 6.48928 21.7334 6.4875 22.3455C6.4875 25.3866 6.4875 28.4271 6.4875 31.467C6.4875 31.6454 6.4875 31.8382 6.47143 32.022C6.46819 32.2469 6.37716 32.4616 6.21777 32.6203C6.05839 32.7791 5.84328 32.8692 5.61836 32.8715C5.50415 32.8822 5.38993 32.8804 5.27571 32.8804H1.20846C1.07979 32.8837 0.951044 32.8789 0.822973 32.8661C0.613218 32.8544 0.415291 32.7652 0.267566 32.6158C0.119842 32.4665 0.0328454 32.2675 0.023443 32.0577C0.00623644 31.8905 -0.00150945 31.7225 0.000242365 31.5544V1.32398C0.000242365 1.1812 0.000242364 1.03843 0.0163043 0.895657C0.0698443 0.358473 0.357175 0.0729267 0.892574 0.0122481C1.0184 0.00181098 1.14471 -0.00176364 1.27092 0.00154011H13.6012C14.7738 -0.018791 15.9413 0.162305 17.0527 0.536939C19.6119 1.44712 21.12 3.27818 21.6928 5.90521C21.8982 6.92752 21.9851 7.97011 21.9516 9.01231C21.9516 9.48346 22.0284 9.97603 21.9106 10.4168C21.7928 10.8577 21.4715 11.2449 21.2377 11.6536C18.1919 16.9291 15.1455 22.2063 12.0985 27.4854C12.0146 27.6335 11.92 27.7781 11.8361 27.9226L11.7612 27.8869ZM6.4875 10.7541C6.4875 12.1819 6.4875 13.6096 6.4875 15.0373C6.48663 15.1936 6.49557 15.3498 6.51427 15.5049C6.52562 15.6056 6.57114 15.6993 6.64325 15.7704C6.71535 15.8415 6.80967 15.8858 6.91046 15.8958C7.02327 15.9125 7.1374 15.9184 7.25133 15.9136C9.00566 15.9136 10.76 15.9136 12.5143 15.9136C12.8426 15.9106 13.1701 15.8826 13.4941 15.8297C14.5649 15.6513 15.1645 15.057 15.3501 13.9897C15.4065 13.6667 15.4363 13.3396 15.4394 13.0117C15.4489 11.5412 15.4489 10.0718 15.4394 8.60362C15.4374 8.26149 15.4075 7.92009 15.3501 7.58279C15.1717 6.48879 14.6077 5.92662 13.5155 5.72853C13.2495 5.67749 12.9796 5.64942 12.7088 5.64465C10.8552 5.63751 9.0009 5.63751 7.14604 5.64465C6.65169 5.64465 6.50891 5.79099 6.4875 6.27463C6.4875 6.37458 6.4875 6.47452 6.4875 6.57446V10.7541Z" fill="white"/>
</svg>
