<svg width="128" height="100" viewBox="0 0 128 100" fill="none" xmlns="http://www.w3.org/2000/svg">
<path d="M119.116 82.5122H7.68197C5.36328 82.5122 3.3654 80.7339 3.25125 78.4182C3.12925 75.9429 5.10793 73.8901 7.557 73.8901H37.1858C37.1858 73.8901 38.6616 73.8993 38.819 73.8509L64.3081 65.9838C64.5608 65.9059 64.7902 65.7677 64.9771 65.5807L106.515 24.0426C109.454 21.1039 110.934 17.0952 110.592 12.8946C110.357 10.006 109.216 7.24207 107.346 5.02833C104.647 1.83432 100.812 0.0403899 96.6962 0.000627021C92.8414 -0.0364309 89.1518 1.57113 86.426 4.29719L45.0599 45.6633C44.873 45.8502 44.7345 46.0799 44.6566 46.3323L37.1528 70.6444H7.71768C3.6056 70.6444 0.125396 73.8622 0.00340221 77.9727C-0.12346 82.2436 3.314 85.7584 7.557 85.7584H118.982C121.959 85.7584 124.498 88.069 124.61 91.0442C124.729 94.1719 122.218 96.7541 119.117 96.7541H37.0697C36.1733 96.7541 35.4468 97.4806 35.4468 98.377C35.4468 99.2735 36.1733 100 37.0697 100H118.942C123.834 100 127.942 95.9967 127.859 91.1053C127.778 86.3529 123.887 82.5122 119.116 82.5122ZM96.5567 3.24604C99.4515 3.24604 102.173 4.37319 104.22 6.42031C106.267 8.46715 107.394 11.1889 107.394 14.0837C107.394 16.7714 106.421 19.3086 104.644 21.2965C105.008 17.2756 103.656 13.1267 100.585 10.0552C97.5134 6.98375 93.3645 5.63154 89.3433 5.99617C91.3315 4.21901 93.869 3.24604 96.5567 3.24604ZM98.29 12.3507C102.514 16.5747 102.515 23.4467 98.2946 27.6729L65.1448 60.8227C63.7704 53.0741 57.5403 46.8795 49.7795 45.534L82.9632 12.3501C87.1891 8.12497 94.0643 8.12497 98.29 12.3507ZM47.3778 48.5219C55.4129 48.8979 61.773 55.2189 62.1674 63.2477L51.9527 66.4004C51.0774 62.6708 48.0789 59.592 44.2295 58.7226L47.3778 48.5219ZM43.2681 61.8373C46.0605 62.3562 48.3088 64.5761 48.8458 67.3593L40.7972 69.8435L43.2681 61.8373Z" fill="#EEEEEE"/>
</svg>
