<svg width="22" height="24" viewBox="0 0 22 24" fill="none" xmlns="http://www.w3.org/2000/svg">
<path d="M20.8688 18.6375C20.8313 18.6375 20.7938 18.6437 20.7563 18.65C20.1563 18.7625 19.5563 18.8188 18.9688 18.8188C13.8875 18.8188 9.59375 14.6875 9.59375 9.41875C9.59375 6.03125 11.4063 2.91875 14.35 1.24375C14.8063 0.9875 14.6875 0.3 14.175 0.2C13.45 0.0687498 12.7188 0 11.9875 0C5.36875 0 0 5.36875 0 12C0 18.625 5.3625 24 11.9875 24C15.6875 24 19.0625 22.3187 21.3 19.5562C21.6063 19.1812 21.3188 18.6375 20.8688 18.6375ZM11.9875 22C6.48125 22 2 17.5125 2 12C2 7.09375 5.55 3 10.2125 2.15625C8.55 4.16875 7.6 6.73125 7.6 9.41875C7.6 15.0313 11.6688 19.7125 17.0063 20.65C15.5063 21.525 13.7813 22 11.9875 22Z" fill="#333333"/>
</svg>
