<svg width="75" height="100" viewBox="0 0 75 100" fill="none" xmlns="http://www.w3.org/2000/svg">
<path d="M74.2456 57.0188L70.2564 53.0296C70.0131 52.7863 69.6829 52.6494 69.3386 52.6494C68.9943 52.6494 68.6644 52.7863 68.4209 53.0296L67.8977 53.5528L64.2141 49.8692V42.6656C64.2141 42.0983 63.8457 41.5968 63.3046 41.4271L40.5346 34.2884C40.0732 34.144 39.5701 34.2674 39.2286 34.6091C38.8869 34.9508 38.7632 35.4542 38.9079 35.9153L46.0464 58.6856C46.2161 59.2267 46.7178 59.5951 47.2849 59.5951H54.4885L58.172 63.2787L57.6489 63.8019C57.4053 64.0454 57.2687 64.3755 57.2687 64.7196C57.2687 65.0639 57.4053 65.3941 57.6489 65.6374L61.638 69.6266C61.8912 69.88 62.2235 70.0067 62.5558 70.0067C62.8881 70.0067 63.2201 69.88 63.4736 69.6266L74.2456 58.8545C74.7527 58.3474 74.7527 57.5257 74.2456 57.0188ZM55.0261 56.9992H48.238L42.966 40.1823L50.4813 47.6979C50.1689 48.2996 50.0013 48.971 50.0013 49.6686C50.0013 50.8136 50.4474 51.89 51.2568 52.6994C52.0925 53.5351 53.19 53.953 54.2879 53.953C55.3852 53.953 56.4831 53.5351 57.3187 52.6994C58.99 51.0282 58.99 48.3091 57.3187 46.6376C55.9674 45.286 53.9313 45.0288 52.3176 45.8628L44.8013 38.3463L61.6184 43.6185V50.4066C61.6184 50.7506 61.7551 51.081 61.9986 51.3243L66.0624 55.3879L60.0076 61.4427L55.9438 57.3789C55.7003 57.1358 55.3704 56.9992 55.0261 56.9992ZM54.2876 47.9789C54.7207 47.9789 55.1535 48.1437 55.4832 48.4733C56.1421 49.1325 56.1421 50.2048 55.4832 50.8639C54.8238 51.5228 53.7519 51.523 53.0921 50.8639C52.4332 50.2048 52.4332 49.1325 53.0921 48.4733C53.422 48.1437 53.8548 47.9789 54.2876 47.9789ZM62.5558 66.873L60.4021 64.7196L69.3386 55.7829L71.4923 57.9365L62.5558 66.873Z" fill="#EEEEEE"/>
<path d="M50.6339 89.1598C48.1848 89.1598 46.1109 90.7928 45.4414 93.027C35.7398 91.9952 26.6164 87.6763 19.6394 80.784C12.6661 73.8957 8.23559 64.8336 7.08113 55.1566C9.25979 54.4536 10.8407 52.4071 10.8407 49.9976C10.8407 47.5882 9.25979 45.5417 7.08113 44.8384C8.23536 35.1614 12.6661 26.0994 19.6394 19.211C26.6162 12.3192 35.7389 8.00031 45.44 6.96833C46.1078 9.20504 48.1829 10.8407 50.6339 10.8407C53.6227 10.8407 56.0543 8.40905 56.0543 5.42023C56.0543 2.43141 53.6227 0 50.6339 0C48.0923 0 45.9547 1.75884 45.3715 4.12299H19.5303V3.0674C19.5303 2.35046 18.9493 1.76946 18.2324 1.76946H13.5267C12.8098 1.76946 12.2288 2.35046 12.2288 3.0674V7.77305C12.2288 8.48999 12.8098 9.071 13.5267 9.071H18.2324C18.9493 9.071 19.5303 8.48999 19.5303 7.77305V6.71865H34.8475C28.5032 8.95017 22.6688 12.5693 17.8149 17.3642C12.7024 22.4144 8.88032 28.5681 6.60348 35.2773V25.4289H7.65765C8.37459 25.4289 8.9556 24.8479 8.9556 24.131V19.4253C8.9556 18.7084 8.37459 18.1274 7.65765 18.1274H2.952C2.23507 18.1274 1.65406 18.7084 1.65406 19.4253V24.131C1.65406 24.8479 2.23507 25.4289 2.952 25.4289H4.00759V44.765C1.70173 45.3883 0 47.4973 0 49.9974C0 52.4975 1.70196 54.6065 4.00759 55.2298V74.5659H2.952C2.23507 74.5659 1.65406 75.1469 1.65406 75.8638V80.5695C1.65406 81.2864 2.23507 81.8674 2.952 81.8674H7.65765C8.37459 81.8674 8.9556 81.2864 8.9556 80.5695V75.8638C8.9556 75.1469 8.37459 74.5659 7.65765 74.5659H6.60348V64.7173C8.88056 71.4265 12.7024 77.5802 17.8149 82.6304C22.6735 87.43 28.515 91.0515 34.8666 93.2825H19.5303V92.2269C19.5303 91.51 18.9493 90.929 18.2324 90.929H13.5267C12.8098 90.929 12.2288 91.51 12.2288 92.2269V96.9326C12.2288 97.6495 12.8098 98.2305 13.5267 98.2305H18.2324C18.9493 98.2305 19.5303 97.6495 19.5303 96.9326V95.8782H45.3718C45.9551 98.2419 48.0925 100 50.6339 100C53.6227 100 56.0543 97.5684 56.0543 94.5795C56.0543 91.5907 53.6227 89.1598 50.6339 89.1598ZM50.6339 2.59589C52.1914 2.59589 53.4584 3.86293 53.4584 5.42046C53.4584 6.978 52.1914 8.24503 50.6339 8.24503C49.0763 8.24503 47.8093 6.978 47.8093 5.42046C47.8093 3.86293 49.0763 2.59589 50.6339 2.59589ZM2.59566 49.9976C2.59566 48.4401 3.86269 47.1731 5.42023 47.1731C6.97777 47.1731 8.2448 48.4401 8.2448 49.9976C8.2448 51.5552 6.97777 52.8222 5.42023 52.8222C3.86269 52.8222 2.59566 51.5549 2.59566 49.9976ZM50.6339 97.4046C49.0763 97.4046 47.8093 96.1375 47.8093 94.58C47.8093 93.0225 49.0763 91.7554 50.6339 91.7554C52.1914 91.7554 53.4584 93.0225 53.4584 94.58C53.4584 96.1375 52.1912 97.4046 50.6339 97.4046Z" fill="#EEEEEE"/>
</svg>
