<svg width="104" height="100" viewBox="0 0 104 100" fill="none" xmlns="http://www.w3.org/2000/svg">
<path d="M102.115 34.7375C102.827 34.7375 103.405 34.1602 103.405 33.4478C103.405 32.7355 102.827 32.1582 102.115 32.1582H82.3419V20.2702H102.115C102.827 20.2702 103.405 19.6929 103.405 18.9805C103.405 18.2682 102.827 17.6909 102.115 17.6909H82.3419V1.28963C82.3419 0.577285 81.7644 0 81.0523 0C80.3402 0 79.7627 0.577285 79.7627 1.28963V17.6907H23.6422V1.28963C23.6422 0.577285 23.0649 0 22.3526 0C21.6402 0 21.0629 0.577285 21.0629 1.28963V17.6907H1.28963C0.577285 17.6907 0 18.268 0 18.9803C0 19.6926 0.577285 20.2699 1.28963 20.2699H21.0629V32.158H1.28963C0.577285 32.158 0 32.7353 0 33.4476C0 34.1599 0.577285 34.7372 1.28963 34.7372H21.0629V74.3727H1.28963C0.577285 74.3727 0 74.95 0 75.6623C0 76.3747 0.577285 76.952 1.28963 76.952H21.0629V98.7104C21.0629 99.4227 21.6402 100 22.3526 100C23.0649 100 23.6422 99.4227 23.6422 98.7104V76.952H79.7627V98.7104C79.7627 99.4227 80.3402 100 81.0523 100C81.7644 100 82.3419 99.4227 82.3419 98.7104V76.952H102.115C102.827 76.952 103.405 76.3747 103.405 75.6623C103.405 74.95 102.827 74.3727 102.115 74.3727H82.3419V34.7375H102.115ZM79.7627 20.2699V32.158H39.7968L44.1879 20.2699H79.7627V20.2699ZM23.6422 20.2699H41.4384L37.0473 32.158H23.6424V20.2699H23.6422ZM36.0944 34.7375L23.6422 68.4491V34.7375H36.0944ZM38.8917 74.3727L41.9517 65.4937H61.0884L64.1476 74.3727H38.8917ZM79.7627 74.3727H66.8757L63.2273 63.7839C63.0479 63.2636 62.5581 62.9145 62.008 62.9145H41.032C40.4817 62.9145 39.9921 63.2636 39.8127 63.7839L36.1636 74.3727H24.2035L38.8439 34.7372H49.7335L43.3259 53.3928C43.1906 53.7867 43.2539 54.2219 43.4959 54.561C43.7381 54.9 44.129 55.1012 44.5457 55.1012H58.4939C58.9103 55.1012 59.3014 54.9 59.5436 54.561C59.7856 54.2219 59.8491 53.7867 59.7138 53.3928L53.3072 34.7372H79.7627V74.3727V74.3727ZM51.5202 37.4757L56.6874 52.5222H46.3523L51.5202 37.4757Z" fill="#EEEEEE"/>
</svg>
