<svg xmlns="http://www.w3.org/2000/svg" viewBox="0 0 205.01 224.12"><defs><style>.cls-1{fill:#fff;}</style></defs><g id="Layer_2" data-name="Layer 2"><g id="Layer_1-2" data-name="Layer 1"><path class="cls-1" d="M116.76,83.46v26.09c0,.64,0,1.28,0,1.92.11,2.27,1,3.09,3.29,3.19h1c9.44,0,18.87,0,28.31,0a36.5,36.5,0,0,0,5.72-.49c7-1.15,11.13-5.31,11.55-12.36a155.56,155.56,0,0,0,0-18.7c-.45-7.49-5-11.74-12.67-12.55a55,55,0,0,0-5.74-.3c-7.12,0-14.24,0-21.35,0h-3.13L162,3.92l.47.22c-4.9,11.8-10.1,23.49-15.22,35.7h3.35a86,86,0,0,1,18.61,1.38c18.12,3.68,30.24,16.69,32.53,35.06a130.69,130.69,0,0,1,.37,26.82c-.92,11.33-6.7,19.62-17.12,24.46-1.3.61-2.64,1.13-4.33,1.84a13.36,13.36,0,0,0,1.64.62,30.82,30.82,0,0,1,12.71,5.9c5.84,4.67,8.71,10.92,9.58,18.18a63.1,63.1,0,0,1,.44,8.13c0,7.51-.11,15-.4,22.54a41.41,41.41,0,0,1-3.07,13.75c-5.22,13.18-15.13,20.83-28.7,24.06a58.33,58.33,0,0,1-13.56,1.54H86.83a15.18,15.18,0,0,1-1.91-.08,4.78,4.78,0,0,1-4.4-4.1,13.42,13.42,0,0,1-.17-2.62q0-35,0-70.06a6.91,6.91,0,0,1,1-3.62q17-29.35,34-58.76c.31-.54.67-1,1-1.57Zm0,85.58V189c0,.64,0,1.28,0,1.92a2.73,2.73,0,0,0,2.85,2.9,13.78,13.78,0,0,0,1.44,0c10.31,0,20.63,0,30.94,0a39.28,39.28,0,0,0,5.73-.45c6.8-1,10.38-4.44,11.61-11.21a30,30,0,0,0,.35-5c0-5.51,0-11,0-16.55a35.8,35.8,0,0,0-.16-3.59c-.67-6.87-4.17-10.8-11-12a44.13,44.13,0,0,0-7.62-.66c-9.92-.07-19.83,0-29.75,0a15.45,15.45,0,0,0-1.67,0c-1.91.21-2.63,1-2.76,3,0,.64,0,1.28,0,1.92Z"/><path class="cls-1" d="M65.9,156.25c5-11.64,10-23.29,15.08-35.2-.68-.07-1.11-.15-1.53-.15l-37.43,0H40.58c-3.38,0-4.22.87-4.23,4.3q0,25.56,0,51.11c0,1,0,2.08-.09,3.11a4.83,4.83,0,0,1-4.78,4.76c-.64.06-1.28.05-1.92.05H6.77a17.26,17.26,0,0,1-2.16-.08,4.75,4.75,0,0,1-4.48-4.53A25,25,0,0,1,0,176.8V7.41c0-.8,0-1.6.09-2.4C.39,2,2,.4,5,.06A19.48,19.48,0,0,1,7.12,0H76.21A57.43,57.43,0,0,1,95.55,3c14.34,5.1,22.79,15.36,26,30.08A76,76,0,0,1,123,50.49c0,2.64.43,5.4-.23,7.87S120.31,63,119,65.29Q93.4,109.63,67.79,154c-.47.83-1,1.64-1.47,2.45Zm-29.55-96q0,12,0,24a20.92,20.92,0,0,0,.15,2.62,2.48,2.48,0,0,0,2.22,2.19,10.11,10.11,0,0,0,1.91.1c9.83,0,19.66,0,29.49,0a36.11,36.11,0,0,0,5.49-.47c6-1,9.36-4.33,10.4-10.31a33.74,33.74,0,0,0,.5-5.48q.08-12.36,0-24.7a35.34,35.34,0,0,0-.5-5.72c-1-6.13-4.16-9.28-10.28-10.39a26.46,26.46,0,0,0-4.52-.47q-15.58-.06-31.17,0c-2.77,0-3.57.82-3.69,3.53,0,.56,0,1.12,0,1.68Z"/></g></g></svg>