<svg width="24" height="24" viewBox="0 0 24 24" fill="none" xmlns="http://www.w3.org/2000/svg">
<path d="M21.9135 11.9994L15.5196 12.9448L20.5853 16.9597L14.5753 14.5753L16.9597 20.5852L12.9449 15.5196L11.9995 21.9135L11.0541 15.5196L7.03925 20.5852L9.42365 14.5753L3.4137 16.9597L8.47936 12.9448L2.08545 11.9994L8.47936 11.0541L3.4137 7.03919L9.42365 9.42359L7.03925 3.41364L11.0541 8.48037L11.9995 2.08539L12.9449 8.48037L16.9597 3.41364L14.5753 9.42359L20.5853 7.04026L15.5196 11.0541L21.9135 11.9994Z" fill="white"/>
<path d="M23.9548 15.2916L15.9304 14.3086L20.7057 20.8315L14.2505 15.9606L15.1303 24L11.9704 16.5585L8.70733 23.9548L9.69142 15.9305L3.16738 20.7057L8.03836 14.2505L0 15.1303L7.44145 11.9704L0.0440959 8.7084L8.06847 9.69142L3.29321 3.16845L9.74842 8.03836L8.86865 0L12.0285 7.44145L15.2905 0.0440959L14.3075 8.06955L20.8315 3.29321L15.9606 9.74842L23.9989 8.86865L16.5575 12.0285L23.9548 15.2916Z" fill="white"/>
<path d="M15.7438 15.7436C17.8115 13.6759 17.8115 10.3235 15.7438 8.25575C13.6761 6.18803 10.3236 6.18803 8.25591 8.25575C6.18818 10.3235 6.18818 13.6759 8.25591 15.7436C10.3236 17.8114 13.6761 17.8114 15.7438 15.7436Z" fill="white" stroke="black" stroke-width="0.5" stroke-miterlimit="10"/>
</svg>
