<svg width="123" height="128" viewBox="0 0 123 128" fill="none" xmlns="http://www.w3.org/2000/svg">
<path d="M69.6652 7.71443L68.6756 8.38953L65.1774 3.26166C64.8045 2.71505 64.0591 2.5744 63.5127 2.94718L59.5543 5.64759C59.0079 6.02037 58.8669 6.76567 59.2398 7.31228L62.7381 12.4402L61.7485 13.1153C60.4554 13.9974 59.6 15.333 59.3393 16.8763C59.0788 18.4196 59.4483 19.9622 60.3798 21.2198L78.1001 45.1418C79.8273 47.4729 80.8533 50.2349 81.0674 53.1283C81.1163 53.7881 81.6907 54.2835 82.3505 54.2344C82.5682 54.2182 82.768 54.145 82.9364 54.0301C83.2779 53.7971 83.4894 53.3933 83.4568 52.9513C83.2092 49.6051 82.0224 46.4115 80.0255 43.7155L62.3053 19.7937C61.7651 19.0643 61.551 18.17 61.702 17.2752C61.7835 16.7922 61.9685 16.3464 62.2366 15.956L100.431 71.9419C104.416 77.7834 109.804 82.6604 116.012 86.0454C116.407 86.2607 116.889 86.2367 117.26 85.9833C117.632 85.73 117.83 85.2898 117.774 84.8435C116.887 77.8282 114.311 71.0323 110.326 65.1909L71.3301 8.02879C70.957 7.4823 70.2117 7.34165 69.6652 7.71443ZM67.0342 18.7375L72.9718 14.6869L106.236 63.4467L100.298 67.4973L67.0342 18.7375ZM65.684 16.7584L64.0883 14.4193L70.0258 10.3687L71.6215 12.7077L65.684 16.7584ZM61.8941 6.95166L63.8733 5.60146L66.6965 9.73974L64.7173 11.0899L61.8941 6.95166ZM115.012 82.6872C110.039 79.5799 105.715 75.4365 102.41 70.5918L101.649 69.4765L107.586 65.4258L108.347 66.5412C111.652 71.3859 113.933 76.9235 115.012 82.6872Z" fill="#EEEEEE"/>
<path d="M7.12918 40.0616L2.76653 43.0378C1.24112 44.0785 0.846702 46.1663 1.88747 47.6919L49.0522 116.827C49.1394 116.955 49.2508 117.065 49.3799 117.151L59.9665 124.167C60.3726 124.436 60.901 124.432 61.3035 124.157C61.706 123.883 61.902 123.392 61.7996 122.916L59.1297 110.5C59.0972 110.348 59.0353 110.204 58.948 110.076L11.7834 40.9408C10.7426 39.4153 8.65458 39.021 7.12918 40.0616ZM4.11674 45.017L8.4792 42.0409C8.91336 41.7447 9.50781 41.857 9.804 42.2912L11.5989 44.9222L5.66138 48.9728L3.86646 46.3418C3.57046 45.9075 3.68258 45.3132 4.11674 45.017ZM56.7762 119.178L52.1885 116.138L57.1618 112.745L58.3187 118.126L56.7762 119.178ZM50.3562 114.488L9.34394 54.3705L11.3231 53.0203L52.3354 113.137L50.3562 114.488ZM54.3146 111.787L13.3023 51.6701L15.2815 50.3199L56.2938 110.437L54.3146 111.787ZM7.99374 52.3913L7.01177 50.9519L12.9493 46.9013L13.9313 48.3407L7.99374 52.3913Z" fill="#EEEEEE"/>
<path d="M29.6085 26.0768L17.3201 34.46C16.7737 34.8328 16.6327 35.5781 17.0056 36.1247L71.3822 115.832C71.7551 116.378 72.5004 116.519 73.0468 116.146L85.3352 107.763C85.8816 107.39 86.0226 106.645 85.6497 106.098L31.2732 26.3913C30.9003 25.8447 30.1549 25.704 29.6085 26.0768ZM82.9954 106.459L72.6862 113.492L71.1776 111.28L73.0668 109.992C73.6132 109.619 73.7542 108.873 73.3813 108.327C73.0084 107.78 72.263 107.64 71.7166 108.012L69.8274 109.301L67.7019 106.186L69.5911 104.897C70.1375 104.524 70.2785 103.779 69.9056 103.232C69.5327 102.685 68.7873 102.545 68.2409 102.918L66.3517 104.206L64.2263 101.091L68.5163 98.1644C69.0627 97.7916 69.2037 97.0463 68.8308 96.4997C68.4579 95.9531 67.7125 95.8124 67.1661 96.1852L62.8761 99.1118L60.7506 95.9962L62.6399 94.7074C63.1863 94.3346 63.3273 93.5893 62.9543 93.0427C62.5814 92.4961 61.8361 92.3554 61.2897 92.7282L59.4004 94.0171L57.2751 90.9016L59.1643 89.6128C59.7107 89.24 59.8517 88.4947 59.4788 87.9481C59.1059 87.4015 58.3605 87.2609 57.8141 87.6336L55.9249 88.9225L53.7994 85.8069L55.6886 84.518C56.2351 84.1453 56.376 83.4 56.0031 82.8534C55.6302 82.3067 54.8849 82.1661 54.3384 82.5389L52.4492 83.8277L50.3239 80.7123L54.6138 77.7857C55.1602 77.4129 55.3012 76.6676 54.9283 76.121C54.5554 75.5744 53.81 75.4337 53.2636 75.8065L48.9736 78.7331L46.8482 75.6175L48.7374 74.3287C49.2838 73.9559 49.4248 73.2106 49.0519 72.664C48.679 72.1174 47.9336 71.9767 47.3872 72.3495L45.498 73.6384L43.3726 70.5229L45.2618 69.2341C45.8083 68.8613 45.9492 68.116 45.5763 67.5694C45.2034 67.0228 44.4581 66.8822 43.9116 67.2549L42.0224 68.5438L39.8969 65.4282L41.7862 64.1394C42.3326 63.7666 42.4735 63.0213 42.1006 62.4747C41.7277 61.928 40.9824 61.7874 40.436 62.1602L38.5467 63.449L36.4214 60.3336L40.7113 57.407C41.2578 57.0342 41.3987 56.2889 41.0258 55.7423C40.6529 55.1957 39.9076 55.055 39.3611 55.4278L35.0712 58.3544L32.9457 55.2388L34.8349 53.95C35.3814 53.5772 35.5223 52.8319 35.1494 52.2853C34.7765 51.7387 34.0312 51.598 33.4847 51.9708L31.5955 53.2597L29.47 50.1441L31.3592 48.8552C31.9057 48.4825 32.0466 47.7372 31.6737 47.1905C31.3008 46.6439 30.5555 46.5033 30.009 46.8761L28.1198 48.1649L25.9945 45.0495L27.8837 43.7607C28.4301 43.3879 28.5711 42.6426 28.1982 42.096C27.8253 41.5494 27.0799 41.4087 26.5335 41.7815L24.6443 43.0703L22.5188 39.9547L26.8088 37.0281C27.3552 36.6553 27.4961 35.91 27.1232 35.3634C26.7503 34.8168 26.005 34.6761 25.4586 35.0489L21.1686 37.9755L19.6599 35.7641L29.9691 28.7311L82.9954 106.459Z" fill="#EEEEEE"/>
<path d="M73.0826 50.4695L75.331 48.9357C75.8774 48.5629 76.0184 47.8176 75.6455 47.271C75.2726 46.7244 74.5272 46.5837 73.9808 46.9565L71.7324 48.4903L64.1836 37.4249C64.0224 37.1887 63.7819 37.0179 63.506 36.9435L61.415 36.3793C61.468 34.7538 61.007 33.1567 60.075 31.7906C57.9021 28.6053 53.752 27.5564 50.3732 29.1623L49.3385 27.6457L49.9683 27.2161C50.5147 26.8433 50.6557 26.098 50.2828 25.5514L44.5137 17.0949C44.1408 16.5483 43.3954 16.4076 42.849 16.7804L39.6104 18.9898C39.0639 19.3626 38.923 20.1079 39.2959 20.6545L45.0649 29.111C45.4378 29.6576 46.1832 29.7983 46.7296 29.4255L47.3594 28.9959L48.3937 30.5121C45.665 33.0724 45.127 37.3198 47.3003 40.5055C48.2326 41.8721 49.5521 42.884 51.0854 43.4276L50.8479 45.5789C50.8166 45.8631 50.8878 46.1491 51.049 46.3854L58.5979 57.4508L56.3481 58.9856C55.8017 59.3584 55.6607 60.1037 56.0336 60.6503C56.4065 61.1969 57.1519 61.3376 57.6983 60.9648L59.9481 59.43L80.4467 89.4775L79.8709 89.8703L79.114 88.7607C78.7411 88.2141 77.9957 88.0734 77.4493 88.4462C76.9028 88.819 76.7619 89.5643 77.1348 90.1109L78.0039 91.3849C77.8575 91.7446 77.8878 92.1681 78.123 92.5129C78.3582 92.8576 78.7415 93.0404 79.1298 93.0352L79.9989 94.3093C80.3718 94.8559 81.1172 94.9965 81.6636 94.6237C82.2101 94.251 82.351 93.5057 81.9781 92.9591L81.2211 91.8494L81.7969 91.4567L83.3312 93.7057C83.4503 93.8803 83.6135 94.0202 83.8041 94.1114L90.5567 97.3403L93.0754 101.032C93.4483 101.579 94.1937 101.72 94.7401 101.347C95.2866 100.974 95.4275 100.229 95.0546 99.6821L65.1659 55.8703L65.5258 55.6248L66.3236 56.7944C66.6965 57.341 67.4419 57.4816 67.9883 57.1088C68.5348 56.7361 68.6757 55.9908 68.3028 55.4441L67.505 54.2746L67.8648 54.0291L97.7535 97.8409C98.1264 98.3875 98.8717 98.5282 99.4182 98.1554C99.9646 97.7826 100.106 97.0373 99.7327 96.4907L97.2139 92.7987L96.6709 85.3335C96.6556 85.1228 96.5848 84.9198 96.4658 84.7453L94.9314 82.4962L95.507 82.1035L96.264 83.2131C96.6369 83.7598 97.3823 83.9004 97.9287 83.5276C98.4751 83.1548 98.6161 82.4095 98.2432 81.8629L97.374 80.5889C97.5205 80.2293 97.4902 79.8057 97.255 79.4609C97.0198 79.1162 96.6365 78.9334 96.2482 78.9386L95.379 77.6646C95.0061 77.1179 94.2608 76.9773 93.7143 77.3501C93.1679 77.7228 93.0269 78.4681 93.3998 79.0148L94.1568 80.1244L93.5812 80.517L73.0826 50.4695ZM41.9502 20.2939L43.2096 19.4347L47.6285 25.912L46.369 26.7712L41.9502 20.2939ZM49.2797 39.1552C47.6215 36.7246 48.2498 33.398 50.6806 31.7397C53.1114 30.0814 56.4379 30.71 58.096 33.1406C58.6283 33.9208 58.9372 34.8103 59.007 35.7298L57.6897 35.3745C57.2058 35.2437 56.6921 35.4283 56.4012 35.8372C56.111 36.2458 56.1056 36.7921 56.3881 37.2061L57.9007 39.4233C57.5635 39.8579 57.1612 40.2382 56.695 40.5562C56.2295 40.8737 55.7292 41.1096 55.2021 41.2651L53.6892 39.0473C53.4066 38.6331 52.896 38.4389 52.4098 38.5602C51.923 38.6815 51.5638 39.093 51.5089 39.5911L51.3592 40.9488C50.5281 40.5481 49.8123 39.9359 49.2797 39.1552ZM53.278 45.4013L53.535 43.0727L87.8679 93.399L85.1286 92.0891L53.278 45.4013ZM66.1548 52.2955L65.3569 51.1259C64.984 50.5793 64.2386 50.4387 63.6922 50.8115C63.1458 51.1842 63.0048 51.9295 63.3777 52.4761L64.1756 53.6457L63.8157 53.8912L56.5985 43.3119C57.102 43.1069 57.5856 42.8489 58.0452 42.5354C58.5052 42.2215 58.9223 41.8647 59.2973 41.4705L66.5146 52.05L66.1548 52.2955ZM94.3048 85.829L94.5252 88.8574L60.1922 38.531L62.4542 39.1413L94.3048 85.829Z" fill="#EEEEEE"/>
</svg>
